<?xml version="1.0" encoding="UTF-8" standalone="no"?>
<svg width="15px" height="1337px" viewBox="0 0 15 1337" version="1.1" xmlns="http://www.w3.org/2000/svg" xmlns:xlink="http://www.w3.org/1999/xlink" xmlns:sketch="http://www.bohemiancoding.com/sketch/ns">
    <!-- Generator: Sketch 3.5.1 (25234) - http://www.bohemiancoding.com/sketch -->
    <title>Group</title>
    <desc>Created with Sketch.</desc>
    <defs></defs>
    <g id="Page-1" stroke="none" stroke-width="1" fill="none" fill-rule="evenodd" sketch:type="MSPage">
        <g id="Group" sketch:type="MSLayerGroup" fill="#000000">
            <path d="M7.577,1336.334 C4.76,1336.334 2.206,1334.667 1.108,1331.916 C-0.367,1328.219 2.167,1325.821 3.529,1324.535 C6.712,1321.515 6.531,1318.527 6.522,1318.396 L8.018,1318.277 C8.032,1318.43 8.296,1322.086 4.643,1325.553 C3.231,1326.887 1.408,1328.612 2.503,1331.357 C3.566,1334.012 6.359,1335.375 9.149,1334.616 C11.136,1334.069 12.227,1332.811 12.479,1330.782 L13.97,1330.967 C13.643,1333.595 12.111,1335.357 9.545,1336.064 C8.883,1336.244 8.224,1336.334 7.577,1336.334 L7.577,1336.334 Z" id="Shape" sketch:type="MSShapeGroup"></path>
            <path d="M13.929,1331.177 C14.069,1330.185 13.98,1329.044 14.026,1328.049 C14.026,1328.025 14.034,1328.007 14.036,1327.988 C14.026,1327.916 14.019,1327.855 14.028,1327.787 C14.026,1327.773 14.019,1327.766 14.019,1327.746 C14.043,1327.342 14.007,1326.931 14.002,1326.521 C13.019,1327.938 11.74,1329.031 10.088,1329.552 C10.72,1329.994 11.426,1330.18 12.192,1330.163 C12.513,1330.161 12.519,1330.99 12.505,1331.307" id="Shape" sketch:type="MSShapeGroup"></path>
            <path d="M7.253,1318.731 C6.233,1318.731 5.36,1317.999 5.176,1316.991 C5.075,1316.436 5.197,1315.874 5.52,1315.409 C5.841,1314.945 6.325,1314.635 6.879,1314.534 C8.031,1314.332 9.134,1315.102 9.337,1316.234 C9.545,1317.383 8.78,1318.488 7.635,1318.695 C7.508,1318.716 7.378,1318.731 7.253,1318.731 L7.253,1318.731 L7.253,1318.731 L7.253,1318.731 L7.253,1318.731 Z M7.26,1315.442 C7.188,1315.442 7.118,1315.444 7.048,1315.459 C6.738,1315.514 6.469,1315.688 6.292,1315.943 C6.112,1316.201 6.045,1316.512 6.101,1316.821 C6.217,1317.453 6.785,1317.89 7.467,1317.77 C8.106,1317.655 8.529,1317.041 8.413,1316.401 C8.313,1315.846 7.828,1315.442 7.26,1315.442 L7.26,1315.442 L7.26,1315.442 L7.26,1315.442 L7.26,1315.442 Z" id="Shape" sketch:type="MSShapeGroup"></path>
            <path d="M7,1.28162492 L7,1302.08958 C7,1309.57261 7.292,1315.64999 7.659,1315.64999 C8.02,1315.64999 8.312,1309.57261 8.312,1302.08958 L8.312,0 C7.875,0.785512047 7.438,1.11625396 7,1.28162492 L7,1.28162492 Z" id="Shape" sketch:type="MSShapeGroup"></path>
        </g>
    </g>
</svg>